<?xml version="1.0" standalone="no"?>
<!DOCTYPE svg PUBLIC "-//W3C//DTD SVG 20010904//EN"
 "http://www.w3.org/TR/2001/REC-SVG-20010904/DTD/svg10.dtd">
<svg version="1.0" xmlns="http://www.w3.org/2000/svg"
 width="512.000000pt" height="512.000000pt" viewBox="0 0 512.000000 512.000000"
 preserveAspectRatio="xMidYMid meet">

<g transform="translate(0.000000,512.000000) scale(0.100000,-0.100000)"
fill="#497bcc" stroke="none">
<path d="M2384 4900 c-401 -33 -793 -170 -1119 -389 -359 -241 -622 -541 -811
-926 -258 -526 -310 -1115 -149 -1675 259 -898 1034 -1566 1958 -1685 167 -21
437 -21 604 0 519 67 1004 310 1376 691 360 369 583 828 653 1344 18 140 18
448 -1 597 -134 1044 -968 1885 -2010 2027 -143 19 -373 27 -501 16z m241
-1281 c25 -7 58 -29 86 -58 29 -28 51 -61 58 -86 7 -26 11 -160 11 -372 l0
-333 333 0 c188 0 347 -4 368 -10 19 -5 54 -26 76 -45 111 -95 92 -272 -37
-345 l-45 -25 -347 -3 -347 -3 -3 -347 -3 -347 -25 -45 c-72 -127 -246 -148
-344 -40 -19 21 -39 56 -45 77 -7 23 -11 167 -11 371 l0 332 -337 0 c-202 0
-353 4 -375 10 -145 41 -200 238 -97 347 69 72 73 73 462 73 l347 0 0 343 c0
339 0 342 24 393 25 54 65 89 125 110 45 16 75 17 126 3z"/>
</g>
</svg>
