<?xml version="1.0" standalone="no"?>
<!DOCTYPE svg PUBLIC "-//W3C//DTD SVG 20010904//EN"
 "http://www.w3.org/TR/2001/REC-SVG-20010904/DTD/svg10.dtd">
<svg version="1.0" xmlns="http://www.w3.org/2000/svg"
 width="512.000000pt" height="512.000000pt" viewBox="0 0 512.000000 512.000000"
 preserveAspectRatio="xMidYMid meet">

<g transform="translate(0.000000,512.000000) scale(0.100000,-0.100000)"
fill="#000000" stroke="none">
<path d="M4130 4940 c-19 -10 -850 -835 -1845 -1832 l-1811 -1813 -158 -479
c-174 -524 -173 -523 -121 -592 30 -39 78 -64 122 -64 15 0 242 71 503 157
l475 157 1813 1811 c1041 1038 1822 1826 1833 1847 21 42 24 83 9 125 -14 37
-646 671 -687 689 -44 19 -91 17 -133 -6z m260 -555 l185 -185 -185 -185 -185
-185 -187 187 -188 188 182 182 c101 101 185 183 188 183 3 0 88 -83 190 -185z
m-597 -593 c97 -97 177 -182 177 -187 0 -6 -638 -648 -1417 -1427 l-1418
-1418 -273 -91 c-150 -50 -276 -89 -279 -86 -3 3 36 129 86 279 l91 273 1418
1418 c779 779 1422 1417 1427 1417 6 0 90 -80 188 -178z"/>
</g>
</svg>
